{
  "title": "Ice.Age.Collision.Course.2016.New.HDTS.XVID.AC3.HQ.Hive-CM8",
  "uid": 15502732,
  "size": 1505461503,
  "categoryP": "video",
  "categoryS": "movies",
  "magnet": "?xt=urn:btih:7e659affcbfed3cc4ab98afb28a2e1270446adc6&amp;dn=Ice.Age.Collision.Course.2016.New.HDTS.XVID.AC3.HQ.Hive-CM8&amp;tr=udp%3A%2F%2Ftracker.leechers-paradise.org%3A6969&amp;tr=udp%3A%2F%2Fzer0day.ch%3A1337&amp;tr=udp%3A%2F%2Fopen.demonii.com%3A1337&amp;tr=udp%3A%2F%2Ftracker.coppersurfer.tk%3A6969&amp;tr=udp%3A%2F%2Fexodus.desync.com%3A6969",
  "seeders": 201,
  "leechers": 58,
  "uploader": "xxxlavalxxx",
  "files": 4,
  "time": 1470538321,
  "description": "http://extraimago.com/image/wTqa\r\n \nhttp://www.imdb.com/title/tt3416828/\r\n\r\n\r\nManny, Diego, and Sid join up with Buck to fend off a meteor strike that would destroy the world.\r\n\r\nDirectors: Mike Thurmeier, Galen T. Chu\r\nWriters: Michael J. Wilson (screenplay), Michael Berg (screenplay)\r\nStars: Ray Romano, Denis Leary, John Leguizamo \r\nGenres: Animation | Adventure | Comedy | Family | Sci-Fi\r\nCountry: USA\r\nLanguage: English\r\n\r\n\r\nIce.Age.Collision.Course.2016.New.HDTS.XVID.AC3.HQ.Hive-CM8\r\n\r\nThx Hive\r\n\r\nCM8 Doing It Right The First Time \r\n\r\nSources:\r\n\r\nVideo: New Russian HDCAM \r\nAudio: English Digital Line Audio (thx cpg)\r\nthx\r\n\r\nNotes:\r\nwaited for the better russian video, quality is amazing, nearly screener quality\r\nno shaking,no focus issues, dark scenes are perfect,as perfect as a cam can be.\r\n\r\nEncode:\r\nas mentioned quality was already perfect only fixed brightness,contrast and rgb\r\n\r\nSyncing Audio took me 12h wasnt funny at all to get it lipsync, after 6h i nearly gave up but i pushed through for you guys\r\nadditional 6h and all is lipsync.\r\n\r\nthe russian video was done with variable bitrate, it was a pita since framerate was moving around from 23-30 frame, plz guys use constant bitrate thx\r\n\r\nwell it took some work but the result is perfect\r\nwont get better than this till retail\r\nenjoy\r\n\r\nah before i forget have new mail adress and i need a new team.\r\nLooking for guys who can get quality stuff, full cams hd prefered or dvd-r and ofc dvd-scr, english line audio or at least a good hqmic.\r\nyou have what it takes msg me under   \r\nthe old addies are gone so only take the new one\r\nthx\r\n\r\nVideo: 720x304 @bitrate 2000 2pass\r\nAudio: English Digital Line Audio AC3 2.0\r\nSample: yes included\r\n\r\n \nhttp://www.imdb.com/title/tt3416828/\r\n\r\nGeneral\r\nComplete name                  : Ice.Age.Collision.Course.2016.New.HDTS.XVID.AC3.HQ.Hive-CM8.avi\r\nFormat                         : AVI\r\nFormat/Info                    : Audio Video Interleave\r\nFile size                      : 1.38 GiB\r\nDuration                       : 1h 27mn\r\nOverall bit rate               : 2 266 Kbps\r\nWriting application            : Nandub v1.0rc2\r\nWriting library                : Nandub build 1853/release\r\n\r\nVideo\r\nID                             : 0\r\nFormat                         : MPEG-4 Visual\r\nFormat profile                 : Advanced   \r\nFormat settings, BVOP          : 2\r\nFormat settings, QPel          : Yes\r\nFormat settings, GMC           : No warppoints\r\nFormat settings, Matrix        : Default (H.263)\r\nMuxing mode                    : Packed bitstream\r\nCodec ID                       : XVID\r\nCodec ID/Hint                  : XviD\r\nDuration                       : 1h 27mn\r\nBit rate                       : 2 000 Kbps\r\nWidth                          : 720 pixels\r\nHeight                         : 304 pixels\r\nDisplay aspect ratio           : 2.35:1\r\nFrame rate                     : 25.000 fps\r\nColor space                    : YUV\r\nChroma subsampling             : 4:2:0\r\nBit depth                      : 8 bits\r\nScan type                      : Progressive\r\nCompression mode               : Lossy\r\nBits/(Pixel*Frame)             : 0.365\r\nStream size                    : 1.22 GiB (88%)\r\nWriting library                : XviD 1.2.1 (UTC 2008-12-04)\r\n\r\nAudio\r\nID                             : 1\r\nFormat                         : AC-3\r\nFormat/Info                    : Audio Coding 3\r\nMode extension                 : CM (complete main)\r\nFormat settings, Endianness    : Big\r\nCodec ID                       : 2000\r\nDuration                       : 1h 27mn\r\nBit rate mode                  : Constant\r\nBit rate                       : 256 Kbps\r\nChannel(s)                     : 2 channels\r\nChannel positions              : Front: L R\r\nSampling rate                  : 48.0 KHz\r\nBit depth                      : 16 bits\r\nCompression mode               : Lossy\r\nStream size                    : 160 MiB (11%)\r\nAlignment                      : Split accross interleaves\r\nInterleave, duration           : 40 ms (1.00 video frame)\r\nInterleave, preload duration   : 500 ms\r\n\r\n \nhttp://extraimago.com/image/wTqN \nhttp://extraimago.com/image/wTqT \nhttp://extraimago.com/image/wTqj \nhttp://extraimago.com/image/wTqn \nhttp://extraimago.com/image/wTqs \nhttp://extraimago.com/image/wTq7 \nhttp://extraimago.com/image/wTqc \nhttp://extraimago.com/image/wTq1 \nhttp://extraimago.com/image/wTqE \nhttp://extraimago.com/image/wTqO",
  "parsed": {
    "xt": "urn:btih:7e659affcbfed3cc4ab98afb28a2e1270446adc6",
    "dn": "Ice.Age.Collision.Course.2016.New.HDTS.XVID.AC3.HQ.Hive-CM8",
    "tr": [
      "udp://exodus.desync.com:6969",
      "udp://open.demonii.com:1337",
      "udp://tracker.coppersurfer.tk:6969",
      "udp://tracker.leechers-paradise.org:6969",
      "udp://zer0day.ch:1337"
    ],
    "infoHash": "7e659affcbfed3cc4ab98afb28a2e1270446adc6",
    "infoHashBuffer": {
      "type": "Buffer",
      "data": [
        126,
        101,
        154,
        255,
        203,
        254,
        211,
        204,
        74,
        185,
        138,
        251,
        40,
        162,
        225,
        39,
        4,
        70,
        173,
        198
      ]
    },
    "name": "Ice.Age.Collision.Course.2016.New.HDTS.XVID.AC3.HQ.Hive-CM8",
    "announce": [
      "udp://exodus.desync.com:6969",
      "udp://open.demonii.com:1337",
      "udp://tracker.coppersurfer.tk:6969",
      "udp://tracker.leechers-paradise.org:6969",
      "udp://zer0day.ch:1337"
    ],
    "urlList": []
  },
  "previous": 50,
  "peers": 165,
  "last_updated": "2016-12-27T05:02:41.661Z"
}